<mxfile host="app.diagrams.net" modified="2023-10-07T16:03:50.868Z" agent="Mozilla/5.0 (Windows NT 10.0; Win64; x64) AppleWebKit/537.36 (KHTML, like Gecko) Chrome/117.0.0.0 Safari/537.36 Edg/117.0.2045.47" etag="-dqexK5Px3RJP6fniLFo" version="22.0.4" type="device">
  <diagram name="Página-1" id="E8UNOwx1NSX0H8IJh3Bv">
    <mxGraphModel dx="1826" dy="759" grid="0" gridSize="10" guides="1" tooltips="1" connect="1" arrows="1" fold="1" page="0" pageScale="1" pageWidth="827" pageHeight="1169" math="0" shadow="0">
      <root>
        <mxCell id="0" />
        <mxCell id="1" parent="0" />
        <mxCell id="1kYxKU6-A1TjF4SrktNB-1" value="" style="ellipse;html=1;shape=startState;fillColor=#000000;strokeColor=#ff0000;" vertex="1" parent="1">
          <mxGeometry x="-220" y="84" width="30" height="30" as="geometry" />
        </mxCell>
        <mxCell id="1kYxKU6-A1TjF4SrktNB-2" value="" style="edgeStyle=orthogonalEdgeStyle;html=1;verticalAlign=bottom;endArrow=open;endSize=8;strokeColor=#ff0000;rounded=0;" edge="1" source="1kYxKU6-A1TjF4SrktNB-1" parent="1">
          <mxGeometry relative="1" as="geometry">
            <mxPoint x="-205" y="174" as="targetPoint" />
          </mxGeometry>
        </mxCell>
        <mxCell id="1kYxKU6-A1TjF4SrktNB-14" value="&lt;font style=&quot;font-size: 15px;&quot;&gt;Usuário realiza download do Spidey&lt;/font&gt;" style="rounded=1;whiteSpace=wrap;html=1;arcSize=40;fontColor=#000000;fillColor=#ffffc0;strokeColor=#ff0000;" vertex="1" parent="1">
          <mxGeometry x="-283.5" y="180" width="157" height="66" as="geometry" />
        </mxCell>
        <mxCell id="1kYxKU6-A1TjF4SrktNB-15" value="" style="edgeStyle=orthogonalEdgeStyle;html=1;verticalAlign=bottom;endArrow=open;endSize=8;strokeColor=#ff0000;rounded=0;entryX=0.5;entryY=0;entryDx=0;entryDy=0;" edge="1" source="1kYxKU6-A1TjF4SrktNB-14" parent="1" target="1kYxKU6-A1TjF4SrktNB-17">
          <mxGeometry relative="1" as="geometry">
            <mxPoint x="-203" y="301" as="targetPoint" />
          </mxGeometry>
        </mxCell>
        <mxCell id="1kYxKU6-A1TjF4SrktNB-22" style="edgeStyle=orthogonalEdgeStyle;rounded=0;orthogonalLoop=1;jettySize=auto;html=1;entryX=0.5;entryY=0;entryDx=0;entryDy=0;fillColor=#e51400;strokeColor=#B20000;" edge="1" parent="1" source="1kYxKU6-A1TjF4SrktNB-17" target="1kYxKU6-A1TjF4SrktNB-18">
          <mxGeometry relative="1" as="geometry" />
        </mxCell>
        <mxCell id="1kYxKU6-A1TjF4SrktNB-17" value="&lt;font style=&quot;font-size: 15px;&quot;&gt;Usuário solicita agendamento de datas no e-mail&lt;/font&gt;" style="rounded=1;whiteSpace=wrap;html=1;arcSize=40;fontColor=#000000;fillColor=#ffffc0;strokeColor=#ff0000;" vertex="1" parent="1">
          <mxGeometry x="-283.5" y="330" width="157" height="66" as="geometry" />
        </mxCell>
        <mxCell id="1kYxKU6-A1TjF4SrktNB-18" value="&lt;font style=&quot;font-size: 15px;&quot;&gt;E-mail do usuário é Gmail, Outlook ou Hotmail?&lt;/font&gt;" style="rhombus;whiteSpace=wrap;html=1;fontColor=#000000;fillColor=#ffffc0;strokeColor=#ff0000;" vertex="1" parent="1">
          <mxGeometry x="-317.5" y="483" width="225" height="140" as="geometry" />
        </mxCell>
        <mxCell id="1kYxKU6-A1TjF4SrktNB-19" value="no" style="edgeStyle=orthogonalEdgeStyle;html=1;align=left;verticalAlign=bottom;endArrow=open;endSize=8;strokeColor=#ff0000;rounded=0;entryX=1;entryY=0.5;entryDx=0;entryDy=0;" edge="1" source="1kYxKU6-A1TjF4SrktNB-18" parent="1" target="1kYxKU6-A1TjF4SrktNB-17">
          <mxGeometry x="-1" relative="1" as="geometry">
            <mxPoint x="-86" y="404" as="targetPoint" />
            <Array as="points">
              <mxPoint x="-23" y="553" />
              <mxPoint x="-23" y="363" />
            </Array>
          </mxGeometry>
        </mxCell>
        <mxCell id="1kYxKU6-A1TjF4SrktNB-20" value="yes" style="edgeStyle=orthogonalEdgeStyle;html=1;align=left;verticalAlign=top;endArrow=open;endSize=8;strokeColor=#ff0000;rounded=0;exitX=0.5;exitY=1;exitDx=0;exitDy=0;entryX=0.5;entryY=0;entryDx=0;entryDy=0;" edge="1" source="1kYxKU6-A1TjF4SrktNB-18" parent="1" target="1kYxKU6-A1TjF4SrktNB-30">
          <mxGeometry x="-1" relative="1" as="geometry">
            <mxPoint x="375.5" y="738" as="targetPoint" />
            <mxPoint x="9" y="717" as="sourcePoint" />
            <Array as="points">
              <mxPoint x="-206" y="623" />
              <mxPoint x="-206" y="710" />
            </Array>
          </mxGeometry>
        </mxCell>
        <mxCell id="1kYxKU6-A1TjF4SrktNB-30" value="&lt;font style=&quot;font-size: 15px;&quot;&gt;O e-mail do usuário é válido?&lt;/font&gt;" style="rhombus;whiteSpace=wrap;html=1;fontColor=#000000;fillColor=#ffffc0;strokeColor=#ff0000;" vertex="1" parent="1">
          <mxGeometry x="-313" y="710" width="216" height="142" as="geometry" />
        </mxCell>
        <mxCell id="1kYxKU6-A1TjF4SrktNB-31" value="no" style="edgeStyle=orthogonalEdgeStyle;html=1;align=left;verticalAlign=bottom;endArrow=open;endSize=8;strokeColor=#ff0000;rounded=0;" edge="1" source="1kYxKU6-A1TjF4SrktNB-30" parent="1">
          <mxGeometry x="-1" relative="1" as="geometry">
            <mxPoint x="-126" y="362" as="targetPoint" />
            <Array as="points">
              <mxPoint x="36" y="781" />
              <mxPoint x="36" y="363" />
              <mxPoint x="-122" y="363" />
              <mxPoint x="-122" y="361" />
            </Array>
          </mxGeometry>
        </mxCell>
        <mxCell id="1kYxKU6-A1TjF4SrktNB-32" value="yes" style="edgeStyle=orthogonalEdgeStyle;html=1;align=left;verticalAlign=top;endArrow=open;endSize=8;strokeColor=#ff0000;rounded=0;entryX=0.5;entryY=0;entryDx=0;entryDy=0;" edge="1" source="1kYxKU6-A1TjF4SrktNB-30" parent="1" target="1kYxKU6-A1TjF4SrktNB-34">
          <mxGeometry x="-1" relative="1" as="geometry">
            <mxPoint x="-210" y="814" as="targetPoint" />
          </mxGeometry>
        </mxCell>
        <mxCell id="1kYxKU6-A1TjF4SrktNB-34" value="&lt;font style=&quot;font-size: 15px;&quot;&gt;O agendamento é feito no e-mail do usuário&lt;/font&gt;" style="rounded=1;whiteSpace=wrap;html=1;arcSize=40;fontColor=#000000;fillColor=#ffffc0;strokeColor=#ff0000;" vertex="1" parent="1">
          <mxGeometry x="-289.5" y="926" width="169" height="79" as="geometry" />
        </mxCell>
        <mxCell id="1kYxKU6-A1TjF4SrktNB-35" value="" style="edgeStyle=orthogonalEdgeStyle;html=1;verticalAlign=bottom;endArrow=open;endSize=8;strokeColor=#ff0000;rounded=0;" edge="1" source="1kYxKU6-A1TjF4SrktNB-34" parent="1">
          <mxGeometry relative="1" as="geometry">
            <mxPoint x="-205" y="1026" as="targetPoint" />
          </mxGeometry>
        </mxCell>
        <mxCell id="1kYxKU6-A1TjF4SrktNB-36" value="" style="ellipse;html=1;shape=endState;fillColor=#000000;strokeColor=#ff0000;" vertex="1" parent="1">
          <mxGeometry x="-220" y="1033" width="30" height="30" as="geometry" />
        </mxCell>
      </root>
    </mxGraphModel>
  </diagram>
</mxfile>
